<svg width="134" height="92" viewBox="0 0 134 92" fill="none" xmlns="http://www.w3.org/2000/svg">
<g clip-path="url(#clip0_136_87)">
<path d="M100.851 55.0469C108.022 54.4677 112.192 59.2936 112.122 66.0565C112.034 74.6833 115.072 88.1418 104.407 91.2458C104.363 91.2548 104.319 91.2634 104.275 91.2714C91.3883 93.6426 91.6606 80.1998 91.9158 71.5436C92.1523 63.5257 90.9757 56.7903 100.851 55.0469ZM102.57 84.586C105.17 81.3638 104.378 76.9232 104.538 73.0006C104.624 70.8855 104.474 68.686 104.509 66.5636C104.467 63.0884 104.312 62.7751 101.212 61.5942C98.5822 66.556 99.5594 77.8316 100.186 83.4241C100.283 84.29 101.854 84.5901 102.57 84.586Z" fill="#F84506"/>
<path d="M52.9545 7.34056C56.5659 6.93138 61.9247 9.08391 63.0143 12.7835C64.3969 17.4781 63.762 23.4487 63.8497 28.3298C63.9443 33.5961 63.5737 38.4667 64.5365 43.6736C60.5705 43.8314 57.8836 44.8241 56.538 40.3398C51.9833 44.5975 47.829 46.1407 44.0573 39.8436C42.6 36.6571 42.5447 32.2027 44.2982 29.1116C47.2439 23.9189 53.2106 22.6545 56.6324 17.8619L55.8432 15.3544C54.9899 14.857 54.3013 14.3642 53.3069 14.3271C50.771 15.1626 52.4753 17.8968 50.9651 19.5029C50.2369 20.2773 44.9249 20.0436 43.4705 20.0805C44.3306 13.2203 44.6955 8.35726 52.9545 7.34056ZM51.8092 36.4621C57.186 38.752 56.393 29.7814 56.3268 26.8131L55.9737 26.4412C53.0618 28.929 49.2468 32.0189 51.3988 36.2034L51.8092 36.4621Z" fill="#F84506"/>
<path d="M29.975 7.57513C43.8001 5.75634 42.3985 18.2448 42.6789 27.6434C38.3062 27.2912 34.0956 27.7701 29.683 26.9436C29.7593 29.3013 29.2728 37.1693 32.5459 37.1682C33.4336 36.8701 33.8622 36.131 34.4124 35.3808C34.789 33.467 34.9478 30.9739 35.1283 28.9935C37.169 29.0277 40.521 28.8861 42.2983 29.791C42.4916 32.9649 42.376 35.6325 41.2056 38.5976C38.3732 45.9853 25.9226 45.8552 23.4542 38.1458C21.7247 32.7442 22.2383 26.5311 22.2287 20.9014C22.2166 13.8297 23.1169 10.2424 29.975 7.57513ZM32.9373 21.8771C34.0704 21.6697 34.0592 21.8582 34.754 21.1278C35.3211 19.1948 34.6747 13.9751 32.0582 14.1348C29.1668 16.3415 30.1165 19.1321 29.7873 22.3569C30.6643 22.213 32.0983 21.9392 32.9373 21.8771Z" fill="#F84506"/>
<path d="M70.2554 46.8474C73.5196 47.6903 75.4268 47.1549 78.7924 47.4524C79.1174 49.8629 81.633 64.2485 82.5889 65.6183C82.9243 65.0173 82.9914 62.1268 83.1932 61.0648C84.0816 56.388 84.8097 51.6009 86.0716 47.0062C89.2636 47.5315 91.0503 47.2894 94.1984 46.9211C92.4543 53.2662 90.615 60.481 88.5811 66.6828C86.1862 74.7961 85.7257 82.5617 86.1808 91.0083C83.5785 90.9713 80.9758 90.9826 78.3739 91.0421C77.944 85.8099 78.641 80.2848 77.8961 75.0057C77.2465 70.4013 75.6137 65.6193 74.2823 61.127C72.8882 56.4232 71.6897 51.4878 70.2554 46.8474Z" fill="#F84506"/>
<path d="M0 62.8234C5.86491 44.6997 19.658 47.3344 34.8214 47.4422C46.0324 47.5219 60.6422 44.9341 66.7991 57.9053C71.7629 68.3628 69.3814 83.0386 58.1598 88.6737C55.9378 89.7807 53.5401 90.4925 51.0739 90.7772C48.6945 91.0718 46.2389 90.966 43.8601 90.9655C36.4639 90.9642 28.8573 90.9653 21.4905 90.9755C12.4225 90.9881 5.23305 87.1496 1.49887 78.73C1.25044 78.1698 0.283105 76.0212 0 75.6475V62.8234ZM36.6003 79.3872C39.5186 78.5109 41.6983 76.0711 42.2414 73.0729C42.7321 70.3642 41.8137 67.5918 39.803 65.7118C37.7922 63.8319 34.9644 63.1016 32.2949 63.773C29.4458 64.4896 27.208 66.6925 26.4467 69.53C25.6855 72.3675 26.5202 75.3947 28.6281 77.441C30.736 79.4874 33.7866 80.2321 36.6003 79.3872ZM53.7445 63.7654C53.1941 63.9488 50.6984 64.8473 50.3727 64.8189C48.2997 64.638 43.674 62.6438 42.1022 64.58C41.5716 67.4713 44.2185 67.155 46.1346 67.176C46.029 70.1485 46.1272 73.1217 46.1965 76.0951C44.4037 76.0513 42.8203 75.7686 41.89 77.6046C42.1818 79.7458 49.375 79.1566 51.0625 79.1462C52.4717 79.1857 55.0217 79.4516 56.1159 78.8435C58.6771 75.324 51.3571 76.2173 49.9993 76.2964C49.9239 74.0868 49.1135 67.5108 52.374 67.2446C53.8923 67.1207 56.3539 69.3547 57.7169 69.4887L58.0487 68.6258L58.0975 68.7544C57.7528 66.6679 56.5204 63.0395 53.7445 63.7654ZM19.5968 57.7867C19.1645 57.8615 18.1841 58.0607 17.9344 58.3741C15.9726 60.8359 13.0577 64.1175 11.1766 66.4713C12.277 66.6845 13.9918 67.0653 15.0557 67.1524C15.1129 69.493 15.2829 72.9602 14.9053 75.2103C13.9218 75.9532 11.8425 77.2416 11.8623 78.5268C13.1648 79.8818 20.3217 78.7951 22.5235 79.028C23.3115 79.1113 24.8727 79.3288 25.378 78.8646C25.5589 77.8673 25.4202 77.2689 25.2647 76.2876C23.4932 76.2259 19.7657 76.195 18.1527 75.9719C18.2179 72.8644 18.2881 70.0234 18.9626 66.9792C20.1182 67.0426 23.9735 67.3857 24.8008 66.9888C25.3079 66.2689 25.3644 66.1172 25.4179 65.2386C24.3266 62.7308 20.0471 64.9669 18.5506 63.0663C18.4336 62.2812 18.3628 62.4991 18.6652 61.8064C21.187 60.4779 27.0691 62.3923 26.289 58.7877C25.3666 57.6236 21.0981 57.659 19.5968 57.7867Z" fill="#F84506"/>
<path d="M33.0838 66.5256C35.5323 66.5971 36.5902 67.4896 38.3711 68.9931L38.8574 72.1527C37.8576 74.2601 37.4543 75.11 35.6789 76.5962C32.6836 77.5074 30.647 75.1154 30.1835 72.3886C29.8767 70.5834 30.1206 70.0497 30.7588 68.385C31.3577 67.8176 32.4058 67.0529 33.0838 66.5256Z" fill="#F84506"/>
<path d="M126.581 39.4283C124.809 41.7144 122.719 44.0631 119.574 44.1479C116.554 44.3301 114.014 40.8236 113.746 38.0018C112.995 30.0995 113.762 21.9192 113.306 13.9655C113.246 12.9166 113.212 9.21049 113.822 8.58068C115.382 7.64793 119.289 7.86791 121.217 7.85336C121.075 9.27123 121.12 10.7184 121.064 12.1416C120.751 20.0684 120.938 27.6804 121.587 35.5832C122.207 36.2385 122.408 36.4901 123.233 36.84C127.112 36.6302 126.155 27.4534 126.146 24.6523C126.134 19.0712 126.073 13.4903 125.965 7.91024C128.612 7.97653 131.362 8.08225 134 8.00525V11.9946C132.183 14.4207 135.368 45.7073 132.384 50.5944C130.714 53.3302 128.297 53.9421 125.309 54.3818L124.645 54.371C122.674 54.2738 115.647 53.7147 114.187 54.4302L114.074 54.8148C115.02 55.4524 119.618 55.1566 120.959 54.9346C121.225 56.4042 120.999 59.205 121.071 60.6725C121.307 65.4355 120.443 79.9531 121.656 83.8398C123.119 84.9737 125.335 84.6304 125.864 82.5112C126.971 78.0712 125.107 57.4118 126.264 54.824C128.766 55.2786 132.653 55.0378 134 56.7052V90.9975C133.333 90.9959 132.605 90.9989 131.939 90.9943C127.459 90.9626 127.971 91.7956 125.929 88.1105C122.708 89.1207 125.003 92.7165 116.815 90.869C111.674 85.6334 113.652 77.5345 113.454 70.7099C113.225 62.8451 113.261 54.8671 113.206 46.9899C115.255 47.2701 117.478 47.2553 119.515 47.4988C125.501 48.2142 125.638 44.1361 126.581 39.4283Z" fill="#F84506"/>
<path d="M0 0H7.59187C7.56127 3.08689 7.80155 15.932 7.37115 18.0628C9.35975 18.0124 11.5537 17.9098 13.5255 17.9953C13.0391 15.374 13.2659 3.48796 13.2731 0H20.9745L20.9323 25.5219C20.9165 31.3228 20.7941 38.2087 21.1749 43.9444C18.2347 43.362 16.4167 43.4315 13.426 43.4815C13.124 39.1857 13.1286 29.7386 13.309 25.3436C11.4302 25.4705 9.30142 25.5208 7.42366 25.299C7.79631 31.3071 7.44975 37.7062 7.58984 43.7774C4.91939 43.8047 2.27409 43.453 0 43.4817V0Z" fill="#F84506"/>
<path d="M91.9209 0H99.8082C99.7845 4.12535 100.119 8.23964 98.8317 12.0966C101.253 9.31356 106.516 5.0143 109.518 8.41065C114.093 13.586 111.923 27.0702 112.033 33.657C112.07 35.8601 112.774 42.3695 112.169 43.3095C109.985 43.9187 107.313 43.2876 104.253 44.0019C104.574 35.725 104.866 23.0545 104.056 14.8409C102.869 14.7305 101.413 14.554 100.245 14.5007C99.3885 22.0524 99.3586 36.1064 99.9523 43.9474C96.6672 43.2739 95.3446 43.5662 92.0909 43.7938C91.9696 40.838 92.0844 37.8534 91.9911 34.8608C92.1784 34.0684 92.1343 27.5902 92.1341 26.324L91.9209 0Z" fill="#F84506"/>
<path d="M78.5058 0H86.0752C85.7814 3.02658 85.0962 5.63998 83.0129 7.98665C85.574 7.97262 88.4644 7.89969 90.99 8.04988C91.009 9.97665 90.9532 13.2416 91.1321 15.0565C90.1853 15.0609 86.0742 14.8584 85.6884 15.0744C85.2494 19.5502 85.6716 26.0207 85.5913 30.6402C85.5633 32.2578 85.9245 34.4308 85.8844 36.0266C87.1475 36.1579 89.3605 36.3283 90.5155 36.6229C91.355 37.6303 91.0005 42.0095 91.0644 43.6497C88.2408 43.2069 82.1906 43.7505 80.1426 41.3573C76.1909 36.7396 77.3087 20.7862 77.4032 14.5583C75.9587 14.9951 74.0836 15.6642 74.1343 13.1863C74.1646 11.7033 74.4166 10.032 74.5699 8.54113C76.758 5.82945 78.383 3.58584 78.5058 0Z" fill="#F84506"/>
<path d="M65.4877 0H73.0782L73.0388 30.9283C73.0384 33.7562 73.4109 40.9153 73.1167 43.1893C71.7648 43.7571 68.0052 43.3778 65.5669 43.8672C65.4397 37.5199 65.574 30.9547 65.5578 24.5824C65.4819 16.3885 65.4585 8.1942 65.4877 0Z" fill="#F84506"/>
<path d="M134 11.9946V56.7052C132.653 55.0378 128.766 55.2786 126.264 54.824C126.134 54.6332 125.576 54.4813 125.309 54.3818C128.297 53.9421 130.714 53.3302 132.384 50.5944C135.368 45.7073 132.183 14.4207 134 11.9946Z" fill="url(#paint0_linear_136_87)"/>
</g>
<defs>
<linearGradient id="paint0_linear_136_87" x1="133.41" y1="53.7057" x2="127.515" y2="51.8374" gradientUnits="userSpaceOnUse">
<stop stop-opacity="0"/>
<stop offset="1" stop-color="#030100" stop-opacity="0.0470588"/>
</linearGradient>
<clipPath id="clip0_136_87">
<rect width="134" height="92" fill="white"/>
</clipPath>
</defs>
</svg>
