<?xml version="1.0" encoding="utf-8" ?><svg xmlns="http://www.w3.org/2000/svg" xmlns:xlink="http://www.w3.org/1999/xlink" width="134" height="92" viewBox="0 0 134 92"><path fill="#FF490E" d="M100.851 55.0468C108.022 54.4676 112.192 59.2935 112.122 66.0564C112.034 74.6832 115.072 88.1417 104.407 91.2457C104.363 91.2547 104.319 91.2633 104.275 91.2713C91.3884 93.6425 91.6607 80.1997 91.9159 71.5435C92.1524 63.5256 90.9758 56.7902 100.851 55.0468ZM102.57 84.5859C105.17 81.3637 104.378 76.9231 104.538 73.0005C104.624 70.8854 104.474 68.6859 104.509 66.5635C104.467 63.0883 104.312 62.775 101.212 61.5941C98.5823 66.5559 99.5595 77.8315 100.186 83.424C100.283 84.2899 101.854 84.59 102.57 84.5859Z"/><path fill="#FF490E" d="M52.9547 7.3405C56.5661 6.93132 61.9249 9.08385 63.0145 12.7834C64.3971 17.478 63.7622 23.4486 63.8499 28.3297C63.9445 33.596 63.5739 38.4666 64.5367 43.6735C60.5707 43.8313 57.8838 44.824 56.5382 40.3397C51.9835 44.5974 47.8292 46.1406 44.0575 39.8435C42.6002 36.657 42.5449 32.2026 44.2984 29.1115C47.2441 23.9188 53.2108 22.6544 56.6326 17.8618L55.8434 15.3543C54.9901 14.8569 54.3015 14.3641 53.3071 14.327C50.7712 15.1625 52.4755 17.8967 50.9653 19.5028C50.2371 20.2772 44.9251 20.0435 43.4707 20.0804C44.3308 13.2202 44.6957 8.3572 52.9547 7.3405ZM51.8094 36.462C57.1862 38.7519 56.3932 29.7813 56.327 26.813L55.9739 26.4411C53.062 28.9289 49.247 32.0188 51.399 36.2033L51.8094 36.462Z"/><path fill="#FF490E" d="M29.9748 7.57513C43.7999 5.75634 42.3983 18.2448 42.6787 27.6434C38.306 27.2912 34.0954 27.7701 29.6828 26.9436C29.7591 29.3013 29.2726 37.1693 32.5457 37.1682C33.4334 36.8701 33.862 36.131 34.4122 35.3808C34.7888 33.467 34.9476 30.9739 35.1281 28.9935C37.1688 29.0277 40.5208 28.8861 42.2981 29.791C42.4914 32.9649 42.3758 35.6325 41.2054 38.5976C38.373 45.9853 25.9224 45.8552 23.454 38.1458C21.7245 32.7442 22.2381 26.5311 22.2285 20.9014C22.2164 13.8297 23.1167 10.2424 29.9748 7.57513ZM32.9371 21.8771C34.0702 21.6697 34.059 21.8582 34.7538 21.1278C35.3209 19.1948 34.6745 13.9751 32.058 14.1348C29.1666 16.3415 30.1163 19.1321 29.7871 22.3569C30.6641 22.213 32.0981 21.9392 32.9371 21.8771Z"/><path fill="#FF490E" d="M70.2556 46.8474C73.5198 47.6903 75.427 47.1549 78.7926 47.4524C79.1176 49.8629 81.6332 64.2485 82.5891 65.6183C82.9245 65.0173 82.9916 62.1268 83.1934 61.0648C84.0818 56.388 84.8099 51.6009 86.0718 47.0062C89.2638 47.5315 91.0505 47.2894 94.1986 46.9211C92.4545 53.2662 90.6152 60.481 88.5813 66.6828C86.1864 74.7961 85.7259 82.5617 86.181 91.0083C83.5787 90.9713 80.976 90.9826 78.3741 91.0421C77.9442 85.8099 78.6412 80.2848 77.8963 75.0057C77.2467 70.4013 75.6139 65.6193 74.2825 61.127C72.8884 56.4232 71.6899 51.4878 70.2556 46.8474Z"/><path fill="#FF490E" d="M0 62.8235C5.86491 44.6998 19.658 47.3345 34.8214 47.4423C46.0324 47.522 60.6422 44.9342 66.7991 57.9054C71.7629 68.3629 69.3814 83.0387 58.1598 88.6738C55.9378 89.7808 53.5401 90.4926 51.0739 90.7773C48.6945 91.0719 46.2389 90.9661 43.8601 90.9656C36.4639 90.9643 28.8573 90.9654 21.4905 90.9756C12.4225 90.9882 5.23305 87.1497 1.49887 78.7301C1.25044 78.1699 0.283105 76.0213 0 75.6476L0 62.8235ZM36.6003 79.3873C39.5186 78.511 41.6983 76.0712 42.2414 73.073C42.7321 70.3643 41.8137 67.5919 39.803 65.7119C37.7922 63.832 34.9644 63.1017 32.2949 63.7731C29.4458 64.4897 27.208 66.6926 26.4467 69.5301C25.6855 72.3676 26.5202 75.3948 28.6281 77.4411C30.736 79.4875 33.7866 80.2322 36.6003 79.3873ZM53.7445 63.7655C53.1941 63.9489 50.6984 64.8474 50.3727 64.819C48.2997 64.6381 43.674 62.6439 42.1022 64.5801C41.5716 67.4714 44.2185 67.1551 46.1346 67.1761C46.029 70.1486 46.1272 73.1218 46.1965 76.0952C44.4037 76.0514 42.8203 75.7687 41.89 77.6047C42.1818 79.7459 49.375 79.1567 51.0625 79.1463C52.4717 79.1858 55.0217 79.4517 56.1159 78.8436C58.6771 75.3241 51.3571 76.2174 49.9993 76.2965C49.9239 74.0869 49.1135 67.5109 52.374 67.2447C53.8923 67.1208 56.3539 69.3548 57.7169 69.4888L58.0487 68.6259L58.0975 68.7545C57.7528 66.668 56.5204 63.0396 53.7445 63.7655ZM19.5968 57.7868C19.1645 57.8616 18.1841 58.0608 17.9344 58.3742C15.9726 60.836 13.0577 64.1176 11.1766 66.4714C12.277 66.6846 13.9918 67.0654 15.0557 67.1525C15.1129 69.4931 15.2829 72.9603 14.9053 75.2104C13.9218 75.9533 11.8425 77.2417 11.8623 78.5269C13.1648 79.8819 20.3217 78.7952 22.5235 79.0281C23.3115 79.1114 24.8727 79.3289 25.378 78.8647C25.5589 77.8674 25.4202 77.269 25.2647 76.2877C23.4932 76.226 19.7657 76.1951 18.1527 75.972C18.2179 72.8645 18.2881 70.0235 18.9626 66.9793C20.1182 67.0427 23.9735 67.3858 24.8008 66.9889C25.3079 66.269 25.3644 66.1173 25.4179 65.2387C24.3266 62.7309 20.0471 64.967 18.5506 63.0664C18.4336 62.2813 18.3628 62.4992 18.6652 61.8065C21.187 60.478 27.0691 62.3924 26.289 58.7878C25.3666 57.6237 21.0981 57.6591 19.5968 57.7868Z"/><path fill="#FF490E" d="M33.084 66.5256C35.5325 66.5971 36.5904 67.4896 38.3713 68.9931L38.8576 72.1527C37.8578 74.2601 37.4545 75.11 35.6791 76.5962C32.6838 77.5074 30.6472 75.1154 30.1837 72.3886C29.8769 70.5834 30.1208 70.0497 30.759 68.385C31.3579 67.8176 32.406 67.0529 33.084 66.5256Z"/><path fill="#FF490E" d="M126.581 39.4283C124.809 41.7144 122.719 44.0631 119.574 44.1479C116.554 44.3301 114.014 40.8236 113.746 38.0018C112.995 30.0995 113.762 21.9192 113.306 13.9655C113.246 12.9166 113.212 9.21046 113.822 8.58065C115.382 7.6479 119.289 7.86788 121.217 7.85333C121.075 9.2712 121.12 10.7184 121.064 12.1416C120.751 20.0684 120.938 27.6804 121.587 35.5832C122.207 36.2385 122.408 36.4901 123.233 36.84C127.112 36.6302 126.155 27.4534 126.146 24.6523C126.134 19.0712 126.073 13.4903 125.965 7.91021C128.612 7.9765 131.362 8.08222 134 8.00522L134 11.9946C132.183 14.4207 135.368 45.7073 132.384 50.5944C130.714 53.3302 128.297 53.9421 125.309 54.3818L124.645 54.371C122.674 54.2738 115.647 53.7147 114.187 54.4302L114.074 54.8148C115.02 55.4524 119.618 55.1566 120.959 54.9346C121.225 56.4042 120.999 59.205 121.071 60.6725C121.307 65.4355 120.443 79.9531 121.656 83.8398C123.119 84.9737 125.335 84.6304 125.864 82.5112C126.971 78.0712 125.107 57.4118 126.264 54.824C128.766 55.2786 132.653 55.0378 134 56.7052L134 90.9975C133.333 90.9959 132.605 90.9989 131.939 90.9943C127.459 90.9626 127.971 91.7956 125.929 88.1105C122.708 89.1207 125.003 92.7165 116.815 90.869C111.674 85.6334 113.652 77.5345 113.454 70.7099C113.225 62.8451 113.261 54.8671 113.206 46.9899C115.255 47.2701 117.478 47.2553 119.515 47.4988C125.501 48.2142 125.638 44.1361 126.581 39.4283Z"/><path fill="#FF490E" d="M0 0L7.59187 0C7.56127 3.08689 7.80155 15.932 7.37115 18.0628C9.35975 18.0124 11.5537 17.9098 13.5255 17.9953C13.0391 15.374 13.2659 3.48796 13.2731 0L20.9745 0L20.9323 25.5219C20.9165 31.3228 20.7941 38.2087 21.1749 43.9444C18.2347 43.362 16.4167 43.4315 13.426 43.4815C13.124 39.1857 13.1286 29.7386 13.309 25.3436C11.4302 25.4705 9.30142 25.5208 7.42366 25.299C7.79631 31.3071 7.44975 37.7062 7.58984 43.7774C4.91939 43.8047 2.27409 43.453 0 43.4817L0 0Z"/><path fill="#FF490E" d="M91.9211 0L99.8084 0C99.7847 4.12535 100.119 8.23964 98.8319 12.0966C101.253 9.31356 106.516 5.0143 109.518 8.41065C114.093 13.586 111.923 27.0702 112.033 33.657C112.07 35.8601 112.774 42.3695 112.169 43.3095C109.985 43.9187 107.313 43.2876 104.253 44.0019C104.574 35.725 104.866 23.0545 104.056 14.8409C102.869 14.7305 101.413 14.554 100.245 14.5007C99.3887 22.0524 99.3588 36.1064 99.9525 43.9474C96.6674 43.2739 95.3448 43.5662 92.0911 43.7938C91.9698 40.838 92.0846 37.8534 91.9913 34.8608C92.1786 34.0684 92.1345 27.5902 92.1343 26.324L91.9211 0Z"/><path fill="#FF490E" d="M78.5059 0L86.0753 0C85.7815 3.02658 85.0963 5.63998 83.013 7.98665C85.5741 7.97262 88.4645 7.89969 90.9901 8.04988C91.0091 9.97665 90.9533 13.2416 91.1322 15.0565C90.1854 15.0609 86.0743 14.8584 85.6885 15.0744C85.2495 19.5502 85.6717 26.0207 85.5914 30.6402C85.5634 32.2578 85.9246 34.4308 85.8845 36.0266C87.1476 36.1579 89.3606 36.3283 90.5156 36.6229C91.3551 37.6303 91.0006 42.0095 91.0645 43.6497C88.2409 43.2069 82.1907 43.7505 80.1427 41.3573C76.191 36.7396 77.3088 20.7862 77.4033 14.5583C75.9588 14.9951 74.0837 15.6642 74.1344 13.1863C74.1647 11.7033 74.4167 10.032 74.57 8.54113C76.7581 5.82945 78.3831 3.58584 78.5059 0Z"/><path fill="#FF490E" d="M65.4875 0L73.078 0L73.0386 30.9283C73.0382 33.7562 73.4107 40.9153 73.1165 43.1893C71.7646 43.7571 68.005 43.3778 65.5667 43.8672C65.4395 37.5199 65.5738 30.9547 65.5576 24.5824C65.4817 16.3885 65.4583 8.1942 65.4875 0Z"/><defs><linearGradient id="gradient_0" gradientUnits="userSpaceOnUse" x1="133.41017" y1="53.705647" x2="127.51453" y2="51.837379"><stop offset="0" stop-color="black" stop-opacity="0"/><stop offset="1" stop-color="#030100" stop-opacity="0.047058824"/></linearGradient></defs><path fill="url(#gradient_0)" d="M134 11.9946L134 56.7052C132.653 55.0378 128.766 55.2786 126.264 54.824C126.134 54.6332 125.576 54.4813 125.309 54.3818C128.297 53.9421 130.714 53.3302 132.384 50.5944C135.368 45.7073 132.183 14.4207 134 11.9946Z"/><path d="M90.5156 36.6229C91.7256 36.0823 91.055 36.1835 91.9913 34.8608C92.0846 37.8534 91.9698 40.838 92.0911 43.7938C91.6012 43.902 91.5121 43.8787 91.0645 43.6497C91.0006 42.0095 91.3551 37.6303 90.5156 36.6229Z"/><path d="M120.959 54.9346C119.618 55.1566 115.02 55.4524 114.074 54.8148L114.187 54.4302C115.647 53.7147 122.674 54.2738 124.645 54.371C123.457 54.6263 121.216 54.4399 120.923 54.7586L120.959 54.9346Z"/></svg>