<?xml version="1.0" encoding="utf-8" ?><svg xmlns="http://www.w3.org/2000/svg" xmlns:xlink="http://www.w3.org/1999/xlink" width="1280" height="739" viewBox="0 0 1280 739"><path fill="#4B86BE" d="M859.301 41.9312C860.144 44.0048 852.542 59.289 851.309 62.3509C841.193 87.4654 828.528 112.166 819.995 137.881C810.824 165.777 806 194.919 805.692 224.283C805.323 250.841 808.568 277.325 815.337 303.008C841.067 399.864 906.689 486.955 909.106 590.262C910.062 631.118 901.89 680.843 869.936 709.606C864.521 714.48 856.188 721.379 849.688 724.529L849.144 724.45C849 722.755 856.982 709.246 858.476 706.34C868.073 687.667 877.093 665.885 882.401 645.596C888.315 622.996 890.14 590.237 886.336 566.698C863.807 427.286 763.07 330.301 788.179 180.13L788.447 178.556L788.807 176.515C797.7 127.239 816.439 71.7168 859.301 41.9312Z"/><path fill="#2D673C" d="M639.888 292.865C676.557 290.282 699.565 316.47 699.322 352.063C666.282 351.413 631.133 351.992 597.941 351.995C597.973 356.881 598.283 367.553 599.977 371.967C606.649 389.348 615.465 407.021 632.533 416.258C643.344 422.212 649.002 422.127 660.213 419.409C677.588 415.196 683.632 404.184 691.939 388.596C693.701 386.559 695.393 387.189 697.4 388.163C700.481 392.314 697.605 397.969 696.228 402.33C680.655 451.658 619.62 463.89 588.352 421.392C582.55 409.899 575.133 394.566 574.014 381.857C570.866 346.09 582.534 313.255 616.501 297.31C624.049 293.767 631.959 293.464 639.888 292.865ZM597.421 342.742C608.543 341.451 624.454 341.919 635.938 341.958C641.237 341.997 659.628 342.526 663.87 341.442C670.122 334.201 657.417 314.839 651.187 310.02C642.885 303.599 636.448 303.089 626.565 303.989C606.769 314.558 601.147 319.502 597.421 342.742Z"/><path fill="#2D673C" d="M225.973 296.386C239.189 295.505 263.013 296.342 276.999 296.42C278.024 331.688 275.967 367.745 277.731 403.044C278.208 412.581 283.138 422.059 292.64 425.282C306.017 429.819 319.926 420.845 329.883 412.583C332.604 410.331 334.436 407.506 337.491 405.698C337.555 383.97 337.398 362.242 337.019 340.517C336.965 333.93 337.767 322.014 337.37 316.355C337.217 314.203 336.594 312.111 335.546 310.227C330.907 302.006 321.48 304.163 314.468 302.224C313.162 300.662 313.648 300.568 313.869 297.997C317.835 295.049 357.238 296.407 364.417 296.45C364.833 313.867 364.449 332.888 364.444 350.431C364.417 366.855 363.062 406.514 367.938 420.65C375.53 426.214 378.171 424.327 386.8 421.808L388.793 428.151C384.79 431.203 379.732 432.292 375.264 434.494C360.925 441.56 351.922 447.621 335.603 448.498C335.234 439.485 335.89 427.972 336.174 418.762C328.259 428.396 318.653 436.505 307.828 442.69C284.028 456.231 255.25 443.676 252.378 415.467C249.722 389.385 251.051 363.862 250.817 337.711C250.742 329.375 252.265 316.76 246.599 310.344C245.277 308.84 244.264 306.824 243.277 305.073C236.09 302.047 228.706 304.237 225.241 301.402C224.711 299.068 225.17 299.018 225.973 296.386Z"/><path fill="#2D673C" d="M911.456 283.75C913.477 284.778 915.071 296.846 923.43 297.414C943.785 297.994 960.047 295.898 980.784 297.09C1028.02 299.806 1013.13 357.268 1011.85 388.671C1011.57 395.597 1008.26 404.162 1008.19 411.941L1008.19 412.243C1012.58 411.978 1017.63 412.051 1022.08 412.024C1021.92 419.699 1018.38 438.628 1017.06 447.288C984.374 448.697 943.431 447.649 910.111 447.641L893.92 447.624C896.533 436.651 898.794 423.508 901.088 412.298C932.764 410.381 960.018 413.968 993.753 409.781C998.157 391.354 1000.83 362.835 994.054 344.706C980.563 317.797 932.188 340.072 909.176 330.183C895.245 324.197 894.835 304.754 899.621 293.116C901.609 288.282 906.741 285.514 911.456 283.75Z"/><path fill="#2D673C" d="M187.82 294.804C190.212 295.352 192.645 296.119 195.007 296.818C205.731 309.084 206.691 330.266 194.835 342.063C189.849 343.598 182.287 344.409 177.334 342.975C159.987 337.953 174.412 311.634 153.488 306.74C130.352 301.329 113.092 317.294 108.311 338.905C101.29 370.64 110.849 414.128 146.598 423.37C157.649 426.19 167.018 422.31 176.343 416.24C183.575 411.373 188.413 404.021 192.564 396.532C194.654 392.762 198.786 384.082 203.534 390.502C202.768 403.045 191.118 423.361 182.878 432.644C173.02 443.749 163.017 448.637 148.216 449.377C133.121 450.209 117.142 448.413 105.454 437.806C88.6846 422.587 81.7088 405.4 80.473 383.058C79.1574 359.275 82.2012 336.982 98.7351 318.57C111.96 303.843 124.518 296.877 144.108 295.355C160.843 293.856 170.734 297.523 184.922 305.347C185.791 300.991 186.157 298.991 187.82 294.804Z"/><path fill="#2D673C" d="M492.16 295.356C506.975 293.812 521.324 296.092 533.758 304.714C534.014 303.386 534.843 298.81 535.445 298.037C541.956 289.526 550.516 302.293 551.893 308.541C554.341 319.653 554.602 340.499 540.073 343.324C511.339 348.911 523.439 319.418 507.728 308.547C502.242 304.751 492.544 304.992 486.424 306.252C476.001 307.964 462.33 321.406 461.331 332.002C460.573 340.036 461.41 350.648 461.173 359.045C460.898 368.791 461.396 379.195 461.195 389C461.518 400.661 460.172 415.039 462.799 426.22C463.045 427.372 464.34 430.119 464.868 431.329C470.657 435.921 473.638 438.747 481.356 438.471C487.905 438.236 490.072 440.731 487.869 447.276C484.934 449.076 419.215 448.319 410.104 448.365L411.248 439.544C424.225 438.365 426.845 438.163 434.183 427.055C433.059 408.668 434.16 390.188 434.302 371.693C434.494 346.774 433.851 321.419 434.446 296.56C442.546 296.175 452.871 296.459 461.141 296.48L461.203 306.288C464.417 304.694 466.431 302.734 469.414 300.905C476.313 296.674 484.292 296.151 492.16 295.356Z"/><path fill="#2D673C" d="M1067.76 283.216C1070.3 284.848 1069.78 295.314 1075.86 295.742C1104.29 297.743 1117.36 292.334 1116.27 327.901C1115.8 342.842 1114.07 362.563 1115.92 377.492C1117.67 390.652 1129.98 405.269 1136.64 416.776C1132.7 429.164 1128.7 441.529 1124.63 453.872C1118.17 441.959 1112.97 429.406 1109.12 416.415C1107.98 412.536 1105.84 401.619 1104.72 399.358C1103.05 398.064 1103.87 398.349 1101.58 398.41C1098.61 400.523 1095.77 411.838 1094.44 415.94C1091.65 426.477 1088.56 436.931 1085.18 447.292C1073.37 448.197 1055.43 447.642 1043.21 447.623C1045.65 435.997 1048.47 423.775 1050.39 412.12C1076.94 410.474 1079.84 417.138 1093.28 386.382C1100.02 370.943 1099.06 346.864 1092.71 331.331C1084.64 331.238 1070.61 331.527 1064.08 327.456C1048.64 317.824 1047.48 288.536 1067.76 283.216Z"/><path fill="#61B059" d="M739.416 293.137C752.83 290.11 766.158 298.531 769.189 311.949C772.22 325.367 763.807 338.703 750.395 341.74C736.976 344.779 723.635 336.357 720.603 322.932C717.57 309.507 725.994 296.166 739.416 293.137Z"/><path fill="#61B059" d="M762.05 352.539C775.603 351.565 787.404 361.708 788.482 375.257C789.56 388.807 779.511 400.69 765.975 401.872C752.291 403.068 740.254 392.882 739.164 379.184C738.074 365.486 748.349 353.524 762.05 352.539Z"/><path fill="#61B059" d="M729.88 241.135C737.553 239.175 745.685 241.521 751.137 247.267C756.588 253.012 758.506 261.259 756.149 268.822C753.791 276.385 747.528 282.08 739.778 283.708C728.146 286.152 716.695 278.848 714.003 267.267C711.31 255.687 718.364 244.077 729.88 241.135Z"/><path fill="#61B059" d="M783.028 414.581C784.624 414.502 786.887 414.323 788.419 414.453C813.669 416.589 816.21 447.733 792.063 456.953C781.717 458.205 769.657 454.785 766.818 443.954C762.634 427.987 768.333 418.951 783.028 414.581Z"/><path fill="#61B059" d="M797.523 462.622C809.12 460.183 820.529 467.495 823.162 479.052C825.796 490.609 818.682 502.144 807.175 504.975C799.556 506.849 791.519 504.466 786.151 498.741C780.784 493.017 778.92 484.841 781.277 477.354C783.634 469.868 789.845 464.236 797.523 462.622Z"/><path fill="#61B059" d="M730.193 141.368C741.715 138.199 753.631 144.944 756.847 156.457C760.064 167.97 753.372 179.918 741.877 183.185C730.312 186.472 718.28 179.728 715.044 168.145C711.807 156.563 718.6 144.556 730.193 141.368Z"/><path fill="#61B059" d="M728.746 186.227C736.442 185.18 744.107 188.351 748.814 194.531C753.52 200.711 754.543 208.945 751.49 216.089C748.438 223.233 741.782 228.184 734.063 229.052C722.322 230.371 711.705 221.997 710.249 210.268C708.793 198.54 717.039 187.821 728.746 186.227Z"/><path fill="#61B059" d="M819.357 508.373C829.739 507.615 838.777 515.405 839.561 525.79C840.345 536.174 832.581 545.234 822.202 546.045C811.786 546.859 802.689 539.057 801.902 528.636C801.115 518.214 808.937 509.134 819.357 508.373Z"/><path fill="#61B059" d="M753.7 93.3834C758.129 93.7234 761.321 94.4723 764.962 97.276C768.869 100.315 771.352 104.83 771.826 109.758C772.367 114.873 770.801 119.988 767.489 123.923C763.519 128.686 758.807 130.271 752.879 130.823C737.63 129.904 731.163 116.788 735.402 102.941C742.227 97.2371 744.764 94.3418 753.7 93.3834Z"/><path fill="#61B059" d="M826.228 559.088C826.895 559.069 827.562 559.07 828.228 559.089C834.531 559.222 836.578 560.233 840.873 564.74C843.54 576.218 842.651 587.035 828.021 587.31C820.209 586.724 817.042 584.963 813.243 578.088C813.576 565.952 813.858 563.354 826.228 559.088Z"/><path fill="#61B059" d="M833.392 600.931C836.506 600.637 840.292 601.508 842.94 603.181C846.012 605.164 848.176 608.281 848.96 611.853C849.824 615.543 849.14 619.426 847.067 622.599C844.495 626.454 841.164 628.01 836.823 628.93C823.818 629.214 815.184 619.577 821.962 606.594C824.151 602.401 829.044 601.722 833.392 600.931Z"/><path fill="#61B059" d="M771.535 58.2439C779.559 57.2624 785.686 59.3623 787.953 67.9495C789.028 71.8994 788.439 76.1177 786.322 79.6214C783.951 83.4607 781.085 85.1972 776.861 86.2057L768.588 86.1006C765.022 83.5249 763.06 81.1473 760.594 77.5688C759.322 65.461 760.303 63.0396 771.535 58.2439Z"/><path fill="#61B059" d="M825.695 638.443C831.253 638.18 836.896 639.537 839.621 644.939C840.94 647.556 841.148 650.595 840.197 653.368C838.629 658.091 835.699 659.727 831.546 661.832C828.785 662.198 826.399 662.053 823.86 660.881C820.643 659.408 818.173 656.677 817.027 653.329C814.436 645.596 818.537 640.756 825.695 638.443Z"/><path fill="#61B059" d="M790.177 31.3636C807.102 29.5229 811.773 45.9338 797.798 53.6851C791.781 54.2058 786.507 53.2532 783.172 47.5224C781.692 45.0223 781.323 42.0178 782.154 39.2339C783.471 34.708 786.331 33.4077 790.177 31.3636Z"/></svg>